<?xml version="1.0" encoding="UTF-8"?>
<svg xmlns="http://www.w3.org/2000/svg">
    <symbol id="logo" viewBox="0 0 100 100" fill="none">
        <rect x="0.5" y="0.5" width="99" height="99" rx="4.5" stroke="white" />
        <line x1="79.3334" y1="80.6274" x2="98.3334" y2="97.6274" stroke="white" />
        <line y1="-0.5" x2="25.4951" y2="-0.5" transform="matrix(0.745241 -0.666795 -0.666795 -0.745241 79 19)"
            stroke="white" />
        <line y1="-0.5" x2="25.4951" y2="-0.5" transform="matrix(-0.745241 0.666795 0.666795 0.745241 21 81)"
            stroke="white" />
        <line x1="20.6666" y1="19.3726" x2="1.6666" y2="2.37262" stroke="white" />
        <rect x="17.5" y="17.5" width="65" height="65" rx="7.5" stroke="white" />
        <path d="M37 68V63H32V58H42V63H57V53H37V48H32V38H37V33H62V38H67V43H57V38H42V48H62V53H67V63H62V68H37Z"
            fill="white" />
    </symbol>
    <symbol id="vscode" viewBox="0 0 100 100" fill="none">
        <g clip-path="url(#clip0_3_31)">
            <path fill-rule="evenodd" clip-rule="evenodd"
                d="M70.9729 99.5726C72.5479 100.189 74.3438 100.15 75.9335 99.381L96.5214 89.4234C98.685 88.3774 100.061 86.1764 100.061 83.7618V16.2393C100.061 13.8248 98.685 11.6239 96.5214 10.5775L75.9335 0.61919C73.8472 -0.38987 71.4056 -0.142764 69.5745 1.19539C69.313 1.38648 69.0638 1.59997 68.83 1.83514L29.4161 37.9797L12.2482 24.8802C10.6501 23.6609 8.41469 23.7608 6.93042 25.118L1.42406 30.1527C-0.391567 31.8129 -0.393547 34.6839 1.41958 36.3468L16.3081 50.0003L1.41958 63.6538C-0.393547 65.3166 -0.391567 68.1878 1.42406 69.8479L6.93042 74.8826C8.41469 76.2397 10.6501 76.3402 12.2482 75.1203L29.4161 62.0209L68.83 98.1654C69.4535 98.7926 70.1856 99.2648 70.9729 99.5726ZM75.0762 27.1815L45.1702 50.0003L75.0762 72.8191V27.1815Z"
                fill="white" />
            <path
                d="M96.5224 10.5931L75.9177 0.620972C73.5327 -0.533315 70.6825 -0.0464282 68.8108 1.83504L1.35937 63.6536C-0.454908 65.3165 -0.452824 68.1876 1.36384 69.8477L6.87353 74.8824C8.35874 76.2396 10.5955 76.3391 12.1945 75.1202L93.4214 13.1801C96.1464 11.1021 100.061 13.0558 100.061 16.494V16.2536C100.061 13.8401 98.6849 11.6401 96.5224 10.5931Z"
                fill="#D9D9D9" />
            <path
                d="M96.5224 89.4075L75.9177 99.3798C73.5327 100.534 70.6825 100.047 68.8108 98.1652L1.35937 36.3465C-0.454908 34.6838 -0.452824 31.8126 1.36384 30.1525L6.87353 25.1178C8.35874 23.7606 10.5955 23.6607 12.1945 24.8801L93.4214 86.8202C96.1464 88.8986 100.061 86.9448 100.061 83.5062V83.7471C100.061 86.1605 98.6849 88.3604 96.5224 89.4075Z"
                fill="#E6E6E6" />
            <path
                d="M75.9188 99.3808C73.5331 100.535 70.6829 100.047 68.811 98.1652C71.1174 100.483 75.061 98.8416 75.061 95.5632V4.43721C75.061 1.15864 71.1175 -0.483371 68.811 1.83504C70.6829 -0.0466393 73.5331 -0.534154 75.9188 0.619085L96.5193 10.5774C98.6839 11.6238 100.061 13.8247 100.061 16.2392V83.7617C100.061 86.1763 98.6839 88.3762 96.5193 89.4232L75.9188 99.3808Z"
                fill="white" />
            <path style="mix-blend-mode:overlay" opacity="0.25" fill-rule="evenodd" clip-rule="evenodd"
                d="M70.9118 99.5724C72.4868 100.189 74.2828 100.15 75.8725 99.3808L96.461 89.4232C98.6245 88.3772 99.9996 86.1763 99.9996 83.7617V16.2392C99.9996 13.8248 98.6245 11.624 96.461 10.5775L75.8725 0.619096C73.7862 -0.389963 71.3445 -0.142749 69.5135 1.1953C69.2519 1.38649 69.0028 1.59988 68.7689 1.83505L29.3551 37.9796L12.1871 24.8801C10.589 23.6607 8.3536 23.7606 6.86933 25.1178L1.36298 30.1525C-0.452537 31.8127 -0.454622 34.6838 1.3585 36.3466L16.247 50.0001L1.3585 63.6537C-0.454622 65.3165 -0.452537 68.1876 1.36298 69.8477L6.86933 74.8825C8.3536 76.2396 10.589 76.3391 12.1871 75.1202L29.3551 62.0208L68.7689 98.1652C69.3925 98.7924 70.1245 99.2646 70.9118 99.5724ZM75.0152 27.1813L45.1091 50.0001L75.0152 72.8189V27.1813Z"
                fill="url(#paint0_linear_3_31)" />
        </g>
        <defs>
            <linearGradient id="paint0_linear_3_31" x1="50" y1="6.97106e-05" x2="50" y2="100.001"
                gradientUnits="userSpaceOnUse">
                <stop stop-color="white" />
                <stop offset="1" stop-color="white" stop-opacity="0" />
            </linearGradient>
        </defs>
    </symbol>
    <symbol id="git" viewBox="0 0 92 92" fill="none">
        <path xmlns="http://www.w3.org/2000/svg" style="stroke:none;fill-rule:nonzero;fill:#fff;fill-opacity:1"
            d="M90.156 41.965 50.036 1.848a5.918 5.918 0 0 0-8.372 0l-8.328 8.332 10.566 10.566a7.03 7.03 0 0 1 7.23 1.684 7.034 7.034 0 0 1 1.669 7.277l10.187 10.184a7.028 7.028 0 0 1 7.278 1.672 7.04 7.04 0 0 1 0 9.957 7.05 7.05 0 0 1-9.965 0 7.044 7.044 0 0 1-1.528-7.66l-9.5-9.497V59.36a7.04 7.04 0 0 1 1.86 11.29 7.04 7.04 0 0 1-9.957 0 7.04 7.04 0 0 1 0-9.958 7.06 7.06 0 0 1 2.304-1.539V33.926a7.049 7.049 0 0 1-3.82-9.234L29.242 14.272 1.73 41.777a5.925 5.925 0 0 0 0 8.371L41.852 90.27a5.925 5.925 0 0 0 8.37 0l39.934-39.934a5.925 5.925 0 0 0 0-8.371" />
    </symbol>
    <symbol id="bash" viewBox="0 0 64 64" fill="none">
        <g clip-path="url(#clip0_37_112)">
            <path
                d="M56.4001 13.1L36.2001 1.1C35.0001 0.4 33.7 0 32.3 0C31 0 29.6 0.4 28.4 1.1L8.20005 13.1C5.80005 14.5 4.30005 17.2 4.30005 20V44C4.30005 46.9 5.80005 49.5 8.20005 50.9L28.4 62.9C29.6 63.6 31 64 32.3 64C33.6 64 35.0001 63.6 36.2001 62.9L56.4001 50.9C58.8001 49.5 60.3 46.8 60.3 44V20C60.3 17.1 58.8001 14.5 56.4001 13.1ZM29.1 61.7L8.90005 49.7C6.90005 48.5 5.70005 46.3 5.70005 44V20C5.70005 17.6 6.90005 15.5 8.90005 14.3L29.1 2.3C30.1 1.7 31.2 1.4 32.3 1.4C33.4 1.4 34.5 1.7 35.5 2.3L55.7001 14.3C57.4001 15.3 58.5 17 58.8 18.9C58.1 17.5 56.6001 17.1 54.9001 18.1L35.8 29.9C33.4 31.3 31.7001 32.9 31.7001 35.7V59.3C31.7001 61 32.4 62.1 33.5 62.5C33.1 62.6 32.8001 62.6 32.4001 62.6C31.2001 62.6 30.1 62.3 29.1 61.7Z"
                fill="white" />
            <path
                d="M51.1 46.3L46.1 49.3C46 49.4 45.9 49.5 45.9 49.6V51C45.9 51.2 46 51.2 46.1 51.1L51.2 48C51.3 47.9 51.4 47.8 51.4 47.6V46.4C51.4 46.3 51.3 46.2 51.1 46.3Z"
                fill="#283037" />
            <path
                d="M40.4 35.2C40.6 35.1 40.7 35.2 40.7 35.4V37.1C41.4 36.8 42.1 36.7 42.6 36.9C42.7 36.9 42.8 37.1 42.7 37.3L42.3 38.8C42.3 38.9 42.2 39 42.1 39.1L42 39.2C41.9 39.2 41.9 39.2 41.8 39.2C41.5 39.1 40.9 39 39.9 39.5C38.9 40 38.5 40.9 38.5 41.6C38.5 42.4 38.9 42.6 40.3 42.7C42.2 42.7 43 43.5 43 45.4C43 47.2 42 49.2 40.5 50.4V52.1C40.5 52.3 40.4 52.5 40.2 52.6L39.2 53.2C39 53.3 38.9 53.2 38.9 53V51.3C38 51.7 37.1 51.8 36.6 51.5C36.5 51.5 36.4 51.3 36.5 51.1L36.9 49.5C36.9 49.4 37 49.3 37.1 49.2L37.2 49.1C37.3 49.1 37.3 49.1 37.4 49.1C38 49.3 38.8 49.2 39.5 48.8C40.5 48.3 41.1 47.3 41.1 46.4C41.1 45.5 40.6 45.2 39.5 45.2C38 45.2 36.7 44.9 36.6 42.8C36.6 41 37.5 39.2 39 38V36.3C39 36.1 39.1 35.9 39.3 35.8L40.4 35.2Z"
                fill="#283037" />
        </g>
    </symbol>
</svg>