<?xml version="1.0" encoding="UTF-8"?>
<svg xmlns="http://www.w3.org/2000/svg">
    <symbol id="vscode" viewBox="0 0 100 100" fill="none">
        <path fill-rule="evenodd" clip-rule="evenodd"
            d="M70.9729 99.5726C72.5479 100.189 74.3438 100.15 75.9335 99.381L96.5214 89.4234C98.685 88.3774 100.061 86.1764 100.061 83.7618V16.2393C100.061 13.8248 98.685 11.6239 96.5214 10.5775L75.9335 0.61919C73.8472 -0.38987 71.4056 -0.142764 69.5745 1.19539C69.313 1.38648 69.0638 1.59997 68.83 1.83514L29.4161 37.9797L12.2482 24.8802C10.6501 23.6609 8.41469 23.7608 6.93042 25.118L1.42406 30.1527C-0.391567 31.8129 -0.393547 34.6839 1.41958 36.3468L16.3081 50.0003L1.41958 63.6538C-0.393547 65.3166 -0.391567 68.1878 1.42406 69.8479L6.93042 74.8826C8.41469 76.2397 10.6501 76.3402 12.2482 75.1203L29.4161 62.0209L68.83 98.1654C69.4535 98.7926 70.1856 99.2648 70.9729 99.5726ZM75.0762 27.1815L45.1702 50.0003L75.0762 72.8191V27.1815Z"
            fill="white" />
        <path
            d="M96.5224 10.5931L75.9177 0.620972C73.5327 -0.533315 70.6825 -0.0464282 68.8108 1.83504L1.35937 63.6536C-0.454908 65.3165 -0.452824 68.1876 1.36384 69.8477L6.87353 74.8824C8.35874 76.2396 10.5955 76.3391 12.1945 75.1202L93.4214 13.1801C96.1464 11.1021 100.061 13.0558 100.061 16.494V16.2536C100.061 13.8401 98.6849 11.6401 96.5224 10.5931Z"
            fill="#D9D9D9" />
        <path
            d="M96.5224 89.4075L75.9177 99.3798C73.5327 100.534 70.6825 100.047 68.8108 98.1652L1.35937 36.3465C-0.454908 34.6838 -0.452824 31.8126 1.36384 30.1525L6.87353 25.1178C8.35874 23.7606 10.5955 23.6607 12.1945 24.8801L93.4214 86.8202C96.1464 88.8986 100.061 86.9448 100.061 83.5062V83.7471C100.061 86.1605 98.6849 88.3604 96.5224 89.4075Z"
            fill="#E6E6E6" />
        <path
            d="M75.9188 99.3808C73.5331 100.535 70.6829 100.047 68.811 98.1652C71.1174 100.483 75.061 98.8416 75.061 95.5632V4.43721C75.061 1.15864 71.1175 -0.483371 68.811 1.83504C70.6829 -0.0466393 73.5331 -0.534154 75.9188 0.619085L96.5193 10.5774C98.6839 11.6238 100.061 13.8247 100.061 16.2392V83.7617C100.061 86.1763 98.6839 88.3762 96.5193 89.4232L75.9188 99.3808Z"
            fill="white" />
        <path style="mix-blend-mode:overlay" opacity="0.25" fill-rule="evenodd" clip-rule="evenodd"
            d="M70.9118 99.5724C72.4868 100.189 74.2828 100.15 75.8725 99.3808L96.461 89.4232C98.6245 88.3772 99.9996 86.1763 99.9996 83.7617V16.2392C99.9996 13.8248 98.6245 11.624 96.461 10.5775L75.8725 0.619096C73.7862 -0.389963 71.3445 -0.142749 69.5135 1.1953C69.2519 1.38649 69.0028 1.59988 68.7689 1.83505L29.3551 37.9796L12.1871 24.8801C10.589 23.6607 8.3536 23.7606 6.86933 25.1178L1.36298 30.1525C-0.452537 31.8127 -0.454622 34.6838 1.3585 36.3466L16.247 50.0001L1.3585 63.6537C-0.454622 65.3165 -0.452537 68.1876 1.36298 69.8477L6.86933 74.8825C8.3536 76.2396 10.589 76.3391 12.1871 75.1202L29.3551 62.0208L68.7689 98.1652C69.3925 98.7924 70.1245 99.2646 70.9118 99.5724ZM75.0152 27.1813L45.1091 50.0001L75.0152 72.8189V27.1813Z"
            fill="url(#vscode_gradient1)" />
        <defs>
            <linearGradient id="vscode_gradient1" x1="50" y1="6.97106e-05" x2="50" y2="100.001"
                gradientUnits="userSpaceOnUse">
                <stop stop-color="white" />
                <stop offset="1" stop-color="white" stop-opacity="0" />
            </linearGradient>
        </defs>
    </symbol>
    <symbol id="git" viewBox="0 0 92 92" fill="none">
        <path xmlns="http://www.w3.org/2000/svg" style="stroke:none;fill-rule:nonzero;fill:#fff;fill-opacity:1"
            d="M90.156 41.965 50.036 1.848a5.918 5.918 0 0 0-8.372 0l-8.328 8.332 10.566 10.566a7.03 7.03 0 0 1 7.23 1.684 7.034 7.034 0 0 1 1.669 7.277l10.187 10.184a7.028 7.028 0 0 1 7.278 1.672 7.04 7.04 0 0 1 0 9.957 7.05 7.05 0 0 1-9.965 0 7.044 7.044 0 0 1-1.528-7.66l-9.5-9.497V59.36a7.04 7.04 0 0 1 1.86 11.29 7.04 7.04 0 0 1-9.957 0 7.04 7.04 0 0 1 0-9.958 7.06 7.06 0 0 1 2.304-1.539V33.926a7.049 7.049 0 0 1-3.82-9.234L29.242 14.272 1.73 41.777a5.925 5.925 0 0 0 0 8.371L41.852 90.27a5.925 5.925 0 0 0 8.37 0l39.934-39.934a5.925 5.925 0 0 0 0-8.371" />
    </symbol>
    <symbol id="bash" viewBox="0 0 64 64" fill="none">
        <path
            d="M56.4001 13.1L36.2001 1.1C35.0001 0.4 33.7 0 32.3 0C31 0 29.6 0.4 28.4 1.1L8.20005 13.1C5.80005 14.5 4.30005 17.2 4.30005 20V44C4.30005 46.9 5.80005 49.5 8.20005 50.9L28.4 62.9C29.6 63.6 31 64 32.3 64C33.6 64 35.0001 63.6 36.2001 62.9L56.4001 50.9C58.8001 49.5 60.3 46.8 60.3 44V20C60.3 17.1 58.8001 14.5 56.4001 13.1ZM29.1 61.7L8.90005 49.7C6.90005 48.5 5.70005 46.3 5.70005 44V20C5.70005 17.6 6.90005 15.5 8.90005 14.3L29.1 2.3C30.1 1.7 31.2 1.4 32.3 1.4C33.4 1.4 34.5 1.7 35.5 2.3L55.7001 14.3C57.4001 15.3 58.5 17 58.8 18.9C58.1 17.5 56.6001 17.1 54.9001 18.1L35.8 29.9C33.4 31.3 31.7001 32.9 31.7001 35.7V59.3C31.7001 61 32.4 62.1 33.5 62.5C33.1 62.6 32.8001 62.6 32.4001 62.6C31.2001 62.6 30.1 62.3 29.1 61.7Z"
            fill="white" />
        <path
            d="M51.1 46.3L46.1 49.3C46 49.4 45.9 49.5 45.9 49.6V51C45.9 51.2 46 51.2 46.1 51.1L51.2 48C51.3 47.9 51.4 47.8 51.4 47.6V46.4C51.4 46.3 51.3 46.2 51.1 46.3Z"
            fill="#283037" />
        <path
            d="M40.4 35.2C40.6 35.1 40.7 35.2 40.7 35.4V37.1C41.4 36.8 42.1 36.7 42.6 36.9C42.7 36.9 42.8 37.1 42.7 37.3L42.3 38.8C42.3 38.9 42.2 39 42.1 39.1L42 39.2C41.9 39.2 41.9 39.2 41.8 39.2C41.5 39.1 40.9 39 39.9 39.5C38.9 40 38.5 40.9 38.5 41.6C38.5 42.4 38.9 42.6 40.3 42.7C42.2 42.7 43 43.5 43 45.4C43 47.2 42 49.2 40.5 50.4V52.1C40.5 52.3 40.4 52.5 40.2 52.6L39.2 53.2C39 53.3 38.9 53.2 38.9 53V51.3C38 51.7 37.1 51.8 36.6 51.5C36.5 51.5 36.4 51.3 36.5 51.1L36.9 49.5C36.9 49.4 37 49.3 37.1 49.2L37.2 49.1C37.3 49.1 37.3 49.1 37.4 49.1C38 49.3 38.8 49.2 39.5 48.8C40.5 48.3 41.1 47.3 41.1 46.4C41.1 45.5 40.6 45.2 39.5 45.2C38 45.2 36.7 44.9 36.6 42.8C36.6 41 37.5 39.2 39 38V36.3C39 36.1 39.1 35.9 39.3 35.8L40.4 35.2Z"
            fill="#283037" />
    </symbol>
    <symbol id="quickeys" viewBox="0 0 50 50" fill="none">
        <path
            d="M47.0002 3.49999L48.5001 3.50001L48.4998 46.5L46.9999 46.5L46.4999 46.5L46.4999 47L46.4999 48.5001H3.50008L3.50012 47L3.50013 46.5H3.00012L1.5 46.5L1.5001 3.49998H3.00023H3.5005L3.50023 2.99971L3.49941 1.5L46.5002 1.5V2.99999V3.49998L47.0002 3.49999Z"
            fill="#1A1A1A" stroke="white" />
        <path d="M44 41H45V44H44V41Z" fill="white" />
        <path d="M46 44H45V46H46V44Z" fill="white" />
        <path d="M5 44H4V46H5V44Z" fill="white" />
        <path d="M5 41H6V44H5V41Z" fill="white" />
        <path d="M44 6H45V9H44V6Z" fill="white" />
        <path d="M45 4H46V6H45V4Z" fill="white" />
        <path fill-rule="evenodd" clip-rule="evenodd"
            d="M11 6H39V8H42V11H43V9H44V41H43V39H42V42H39V44H11V42H8V39H7V41H6V9H7V11H8V8H11V6ZM12 7H38V9H41V12H43V38H41V41H38V43H12V41H9V38H7V12H9V9H12V7Z"
            fill="white" />
        <path d="M6 6H5V9H6V6Z" fill="white" />
        <path d="M5 4H4V6H5V4Z" fill="white" />
        <path fill-rule="evenodd" clip-rule="evenodd"
            d="M28 19H22V31H28V19ZM29 17V15H21V17H18V33H21V35H29V37H34V32H32V17H29Z" fill="white" />
    </symbol>
    <symbol id="chrome" viewBox="0 0 48 48" fill="none">
        <path
            d="M23.99 33.51C29.24 33.51 33.49 29.26 33.49 24.01C33.49 18.76 29.24 14.51 23.99 14.51C18.74 14.51 14.49 18.76 14.49 24.01C14.49 29.26 18.74 33.51 23.99 33.51Z"
            fill="white" />
        <path
            d="M31.34 14.5C32.57 15.45 33.62 16.64 34.4 17.99C35.46 19.82 36.01 21.89 36.01 24C36.01 26.11 35.45 28.18 34.4 30.01L24 48C28.21 48 32.37 46.9 36.02 44.79C39.67 42.68 42.69 39.65 44.8 36C46.9 32.35 48.01 28.21 48 24C48 20.72 47.3 17.49 46 14.5H31.34Z"
            fill="white" />
        <path
            d="M24.01 12H23.99C24.04 12.01 24.09 12.02 24.14 12.02L44.74 12C42.64 8.35 39.61 5.32 35.97 3.21C32.32 1.11 28.19 0 23.98 0C19.77 0 15.63 1.11 11.99 3.23C9.16001 4.87 6.70001 7.08 4.76001 9.69L12.1 22.41C12.31 20.86 12.81 19.37 13.59 18.01C14.64 16.18 16.16 14.67 17.98 13.61C19.81 12.56 21.88 12 23.98 12H24H24.01Z"
            fill="white" />
        <path
            d="M28.55 35.11C27.11 35.7 25.56 36.02 24 36.02C21.89 36.02 19.82 35.47 18 34.41C16.17 33.36 14.66 31.84 13.61 30.01L3.22 12.02C1.11 15.67 0 19.81 0 24.02C0 28.23 1.11 32.37 3.22 36.02C5.33 39.67 8.36 42.7 12.01 44.8C14.85 46.44 17.98 47.46 21.22 47.83L28.56 35.11H28.55Z"
            fill="white" />
    </symbol>
    <symbol id="chromedev" viewBox="0 0 48 48" fill="none">
        <path
            d="M23.99 33.51C29.24 33.51 33.49 29.26 33.49 24.01C33.49 18.76 29.24 14.51 23.99 14.51C18.74 14.51 14.49 18.76 14.49 24.01C14.49 29.26 18.74 33.51 23.99 33.51Z"
            fill="white" />
        <path
            d="M31.34 14.5C32.57 15.45 33.62 16.64 34.4 17.99C35.46 19.82 36.01 21.89 36.01 24C36.01 26.11 35.45 28.18 34.4 30.01L24 48C28.21 48 32.37 46.9 36.02 44.79C39.67 42.68 42.69 39.65 44.8 36C46.9 32.35 48.01 28.21 48 24C48 20.72 47.3 17.49 46 14.5H31.34Z"
            fill="white" />
        <path
            d="M24.01 12H23.99C24.04 12.01 24.09 12.02 24.14 12.02L44.74 12C42.64 8.35 39.61 5.32 35.97 3.21C32.32 1.11 28.19 0 23.98 0C19.77 0 15.63 1.11 11.99 3.23C9.16001 4.87 6.70001 7.08 4.76001 9.69L12.1 22.41C12.31 20.86 12.81 19.37 13.59 18.01C14.64 16.18 16.16 14.67 17.98 13.61C19.81 12.56 21.88 12 23.98 12H24H24.01Z"
            fill="white" />
        <path
            d="M28.55 35.11C27.11 35.7 25.56 36.02 24 36.02C21.89 36.02 19.82 35.47 18 34.41C16.17 33.36 14.66 31.84 13.61 30.01L3.22 12.02C1.11 15.67 0 19.81 0 24.02C0 28.23 1.11 32.37 3.22 36.02C5.33 39.67 8.36 42.7 12.01 44.8C14.85 46.44 17.98 47.46 21.22 47.83L28.56 35.11H28.55Z"
            fill="white" />
        <path
            d="M19.8699 23.2588C19.8699 22.5515 19.8699 22.1978 20.0895 21.978C20.3091 21.7583 20.6626 21.7583 21.3695 21.7583H47.9875V36.7639H21.3695C20.6626 36.7639 20.3091 36.7639 20.0895 36.5442C19.8699 36.3244 19.8699 35.9707 19.8699 35.2634V23.2588Z"
            fill="#3C4043" />
        <path
            d="M28.6511 25.3243C27.9266 24.9374 27.1151 24.7433 26.2942 24.7604H23.6189V33.5742H26.2942C27.115 33.591 27.9264 33.3968 28.6511 33.0103C29.3061 32.6534 29.8443 32.1145 30.2009 31.4584C30.5699 30.7536 30.7557 29.967 30.7412 29.1713C30.756 28.3755 30.5702 27.5888 30.2009 26.8841C29.8455 26.2251 29.3072 25.6834 28.6511 25.3243ZM24.75 25.8612H26.2942C27.3072 25.8612 28.1108 26.1544 28.6995 26.7318C29.2881 27.3093 29.5853 28.1303 29.5853 29.1713C29.5853 30.2122 29.287 31.0321 28.6995 31.6096C28.112 32.187 27.3016 32.4802 26.2942 32.4802H24.75V25.8612Z"
            fill="white" />
        <path
            d="M36.2815 27.4304C35.8013 27.1428 35.2521 26.9976 34.6956 27.0111C34.1321 27.0021 33.5788 27.1651 33.1065 27.4792C32.6525 27.7866 32.2879 28.2133 32.0511 28.7144C31.801 29.2406 31.6739 29.819 31.6796 30.404C31.6713 31.0027 31.8072 31.5943 32.0755 32.1266C32.329 32.6219 32.7111 33.0362 33.1799 33.3242C33.6628 33.6179 34.2159 33.7693 34.7779 33.7617C35.3653 33.7778 35.9446 33.6199 36.4461 33.3071C36.908 33.0044 37.2842 32.5833 37.5371 32.0857L37.5649 32.0334L36.6029 31.5562L36.5773 31.6027C36.1669 32.3311 35.5764 32.7004 34.8158 32.7004C34.4886 32.6996 34.1665 32.6177 33.8771 32.4618C33.5719 32.2963 33.3163 32.0493 33.1376 31.7471C32.9422 31.4089 32.831 31.0269 32.814 30.6346H37.6282L37.6394 30.5926C37.6659 30.4837 37.6786 30.3719 37.6772 30.2597C37.6869 29.6793 37.5639 29.1046 37.318 28.5814C37.0871 28.1045 36.7275 27.7051 36.2815 27.4304ZM34.6834 28.0678C35.0363 28.0546 35.3856 28.1449 35.6899 28.328C35.9381 28.4825 36.1404 28.7033 36.2748 28.9666C36.3851 29.1858 36.4548 29.4238 36.4806 29.6688H32.8829C32.9717 29.2318 33.1885 28.8327 33.5046 28.5246C33.8242 28.2212 34.2472 28.0573 34.6834 28.0678Z"
            fill="white" />
        <path
            d="M43.0463 27.1978L41.1457 32.1641L39.2841 27.2343L39.2696 27.1978H38.0527L40.5646 33.5399L40.578 33.5752H41.6887L44.2386 27.1978H43.0463Z"
            fill="white" />
    </symbol>
    <symbol id="windows" viewBox="0 0 100 100" fill="none">
        <path d="M48 0H0V48H48V0Z" fill="white" />
        <path d="M100 0H53V48H100V0Z" fill="white" />
        <path d="M48 53H0V100H48V53Z" fill="white" />
        <path d="M100 53H53V100H100V53Z" fill="white" />
    </symbol>
</svg>