<?xml version="1.0" encoding="UTF-8"?>
<svg xmlns="http://www.w3.org/2000/svg">
    <symbol id="logo" viewBox="0 0 100 69" fill="none">
        <line x1="98.7809" y1="1.6247" x2="90.7809" y2="11.6247" stroke="#D9D9D9" stroke-width="2" />
        <line y1="-1" x2="12.8062" y2="-1" transform="matrix(-0.624695 -0.780869 -0.780869 0.624695 97 69)"
            stroke="#D9D9D9" stroke-width="2" />
        <line y1="-1" x2="12.8062" y2="-1" transform="matrix(0.624698 0.780867 0.780867 -0.624698 2 1.00002)"
            stroke="#D9D9D9" stroke-width="2" />
        <line x1="2.21913" y1="68.3753" x2="10.2192" y2="58.3753" stroke="#D9D9D9" stroke-width="2" />
        <rect x="1" y="1" width="98" height="67.4426" rx="3" stroke="#D9D9D9" stroke-width="2" />
        <rect x="6.73773" y="7.55119" width="86.5246" height="54.3402" rx="13" stroke="#D9D9D9" stroke-width="2" />
        <path
            d="M17.75 41.75V39.5H15.5V37.25H20V39.5H26.75V35H17.75V32.75H15.5V28.25H17.75V26H29V28.25H31.25V30.5H26.75V28.25H20V32.75H29V35H31.25V39.5H29V41.75H17.75ZM33.5 41.75V26H38V30.5H47V32.75H49.25V41.75H44.75V32.75H38V41.75H33.5ZM58.25 32.75H60.5V35H58.25V41.75H53.75V30.5H58.25V32.75ZM67.25 30.5V32.75H60.5V30.5H67.25ZM76.25 41.75V32.75H71.75V30.5H76.25V26H80.75V30.5H85.25V32.75H80.75V41.75H76.25Z"
            fill="#D9D9D9" />
    </symbol>
    <symbol id="logo-home" viewBox="0 0 100 70" fill="none">
        <line x1="98.3904" y1="1.31235" x2="90.3904" y2="11.3123" stroke="#D9D9D9" />
        <line y1="-0.5" x2="12.8062" y2="-0.5" transform="matrix(-0.624695 -0.780869 -0.780869 0.624695 97 69)"
            stroke="#D9D9D9" />
        <line y1="-0.5" x2="12.8062" y2="-0.5" transform="matrix(0.624698 0.780867 0.780867 -0.624698 2 1.00002)"
            stroke="#D9D9D9" />
        <line x1="2.60957" y1="68.6876" x2="10.6096" y2="58.6876" stroke="#D9D9D9" />
        <rect x="0.5" y="0.5" width="99" height="68.4426" rx="3.5" stroke="#D9D9D9" />
        <rect x="6.23773" y="7.05119" width="87.5246" height="55.3402" rx="13.5" stroke="#D9D9D9" />
        <path
            d="M17.75 41.75V39.5H15.5V37.25H20V39.5H26.75V35H17.75V32.75H15.5V28.25H17.75V26H29V28.25H31.25V30.5H26.75V28.25H20V32.75H29V35H31.25V39.5H29V41.75H17.75ZM33.5 41.75V26H38V30.5H47V32.75H49.25V41.75H44.75V32.75H38V41.75H33.5ZM58.25 32.75H60.5V35H58.25V41.75H53.75V30.5H58.25V32.75ZM67.25 30.5V32.75H60.5V30.5H67.25ZM76.25 41.75V32.75H71.75V30.5H76.25V26H80.75V30.5H85.25V32.75H80.75V41.75H76.25Z"
            fill="#D9D9D9" />
    </symbol>
    <symbol id="vscode" viewBox="0 0 100 100" fill="none">
        <g clip-path="url(#clip0_3_31)">
            <path fill-rule="evenodd" clip-rule="evenodd"
                d="M70.9729 99.5726C72.5479 100.189 74.3438 100.15 75.9335 99.381L96.5214 89.4234C98.685 88.3774 100.061 86.1764 100.061 83.7618V16.2393C100.061 13.8248 98.685 11.6239 96.5214 10.5775L75.9335 0.61919C73.8472 -0.38987 71.4056 -0.142764 69.5745 1.19539C69.313 1.38648 69.0638 1.59997 68.83 1.83514L29.4161 37.9797L12.2482 24.8802C10.6501 23.6609 8.41469 23.7608 6.93042 25.118L1.42406 30.1527C-0.391567 31.8129 -0.393547 34.6839 1.41958 36.3468L16.3081 50.0003L1.41958 63.6538C-0.393547 65.3166 -0.391567 68.1878 1.42406 69.8479L6.93042 74.8826C8.41469 76.2397 10.6501 76.3402 12.2482 75.1203L29.4161 62.0209L68.83 98.1654C69.4535 98.7926 70.1856 99.2648 70.9729 99.5726ZM75.0762 27.1815L45.1702 50.0003L75.0762 72.8191V27.1815Z"
                fill="white" />
            <path
                d="M96.5224 10.5931L75.9177 0.620972C73.5327 -0.533315 70.6825 -0.0464282 68.8108 1.83504L1.35937 63.6536C-0.454908 65.3165 -0.452824 68.1876 1.36384 69.8477L6.87353 74.8824C8.35874 76.2396 10.5955 76.3391 12.1945 75.1202L93.4214 13.1801C96.1464 11.1021 100.061 13.0558 100.061 16.494V16.2536C100.061 13.8401 98.6849 11.6401 96.5224 10.5931Z"
                fill="#D9D9D9" />
            <path
                d="M96.5224 89.4075L75.9177 99.3798C73.5327 100.534 70.6825 100.047 68.8108 98.1652L1.35937 36.3465C-0.454908 34.6838 -0.452824 31.8126 1.36384 30.1525L6.87353 25.1178C8.35874 23.7606 10.5955 23.6607 12.1945 24.8801L93.4214 86.8202C96.1464 88.8986 100.061 86.9448 100.061 83.5062V83.7471C100.061 86.1605 98.6849 88.3604 96.5224 89.4075Z"
                fill="#E6E6E6" />
            <path
                d="M75.9188 99.3808C73.5331 100.535 70.6829 100.047 68.811 98.1652C71.1174 100.483 75.061 98.8416 75.061 95.5632V4.43721C75.061 1.15864 71.1175 -0.483371 68.811 1.83504C70.6829 -0.0466393 73.5331 -0.534154 75.9188 0.619085L96.5193 10.5774C98.6839 11.6238 100.061 13.8247 100.061 16.2392V83.7617C100.061 86.1763 98.6839 88.3762 96.5193 89.4232L75.9188 99.3808Z"
                fill="white" />
            <path style="mix-blend-mode:overlay" opacity="0.25" fill-rule="evenodd" clip-rule="evenodd"
                d="M70.9118 99.5724C72.4868 100.189 74.2828 100.15 75.8725 99.3808L96.461 89.4232C98.6245 88.3772 99.9996 86.1763 99.9996 83.7617V16.2392C99.9996 13.8248 98.6245 11.624 96.461 10.5775L75.8725 0.619096C73.7862 -0.389963 71.3445 -0.142749 69.5135 1.1953C69.2519 1.38649 69.0028 1.59988 68.7689 1.83505L29.3551 37.9796L12.1871 24.8801C10.589 23.6607 8.3536 23.7606 6.86933 25.1178L1.36298 30.1525C-0.452537 31.8127 -0.454622 34.6838 1.3585 36.3466L16.247 50.0001L1.3585 63.6537C-0.454622 65.3165 -0.452537 68.1876 1.36298 69.8477L6.86933 74.8825C8.3536 76.2396 10.589 76.3391 12.1871 75.1202L29.3551 62.0208L68.7689 98.1652C69.3925 98.7924 70.1245 99.2646 70.9118 99.5724ZM75.0152 27.1813L45.1091 50.0001L75.0152 72.8189V27.1813Z"
                fill="url(#paint0_linear_3_31)" />
        </g>
        <defs>
            <linearGradient id="paint0_linear_3_31" x1="50" y1="6.97106e-05" x2="50" y2="100.001"
                gradientUnits="userSpaceOnUse">
                <stop stop-color="white" />
                <stop offset="1" stop-color="white" stop-opacity="0" />
            </linearGradient>
        </defs>
    </symbol>
</svg>